<?xml version="1.0" encoding="utf-8"?>
<!-- Generator: Adobe Illustrator 27.5.0, SVG Export Plug-In . SVG Version: 6.00 Build 0)  -->
<svg version="1.1" xmlns="http://www.w3.org/2000/svg" xmlns:xlink="http://www.w3.org/1999/xlink" x="0px" y="0px"
	 viewBox="0 0 500 500" style="enable-background:new 0 0 500 500;" xml:space="preserve">
<g id="Circle">
	
		<circle id="Circle_00000158741896719157939060000004705833481588414135_" style="fill:#FF95FB;stroke:#FF95FB;stroke-width:1.5;stroke-linecap:round;stroke-linejoin:round;stroke-miterlimit:10;" cx="235.126" cy="251.008" r="202.947"/>
</g>
<g id="Clouds_00000103950435232913010820000017037448997418934670_">
	
		<path id="Cloud_00000022554438537678815300000011893115692240297902_" style="fill:#FFFFFF;stroke:#FF95FB;stroke-width:1.5;stroke-linecap:round;stroke-linejoin:round;stroke-miterlimit:10;" d="
		M232.47,133.815c-1.318-6.089-6.732-10.642-13.212-10.642c-2.07,0-4.008,0.479-5.762,1.296c-1.746-5.399-6.793-9.316-12.78-9.353
		c-0.459-9.932-8.633-17.85-18.679-17.85c-9.322,0-17.046,6.815-18.478,15.733c-0.072,0.447-0.637,0.596-0.922,0.244
		c-3.338-4.127-8.435-6.771-14.157-6.771c-9.988,0-18.089,8.041-18.205,18.002c-1.746-0.822-3.672-1.3-5.724-1.3
		c-6.503,0-11.938,4.597-13.234,10.718C111.317,133.891,227.896,133.82,232.47,133.815z"/>
	
		<path id="Cloud_00000165223816254502534220000014307982160247351996_" style="fill:#FFFFFF;stroke:#FF95FB;stroke-width:1.5;stroke-linecap:round;stroke-linejoin:round;stroke-miterlimit:10;" d="
		M27.102,165.265c0.915-4.229,4.675-7.391,9.176-7.391c1.438,0,2.784,0.333,4.002,0.9c1.212-3.749,4.718-6.47,8.876-6.496
		c0.319-6.898,5.996-12.397,12.973-12.397c6.474,0,11.838,4.733,12.832,10.926c0.05,0.31,0.442,0.414,0.64,0.169
		c2.318-2.866,5.859-4.703,9.832-4.703c6.937,0,12.563,5.585,12.643,12.502c1.212-0.57,2.55-0.903,3.975-0.903
		c4.516,0,8.291,3.192,9.191,7.444C111.242,165.318,30.279,165.268,27.102,165.265z"/>
	
		<path id="Cloud_00000110432922096178249560000011711372122307150506_" style="fill:#FFFFFF;stroke:#FF95FB;stroke-width:1.5;stroke-linecap:round;stroke-linejoin:round;stroke-miterlimit:10;" d="
		M330.841,132.773c1.193-5.511,6.093-9.632,11.959-9.632c1.874,0,3.628,0.434,5.216,1.173c1.58-4.886,6.149-8.432,11.568-8.465
		c0.416-8.99,7.814-16.157,16.906-16.157c8.438,0,15.428,6.168,16.724,14.24c0.065,0.404,0.577,0.539,0.834,0.221
		c3.021-3.736,7.635-6.129,12.814-6.129c9.04,0,16.372,7.278,16.477,16.294c1.58-0.743,3.324-1.176,5.181-1.176
		c5.886,0,10.805,4.16,11.978,9.701C440.497,132.843,334.981,132.778,330.841,132.773z"/>
</g>
<g id="Sun">
	<circle id="Sun_00000076564396318822547580000010536838947227078286_" style="fill:#F55571;" cx="66.116" cy="78.351" r="20.549"/>
</g>
<g id="Rails_00000178920673716574667990000004037883241987762871_">
	<g id="Rails">
		<g>
			<g>
				<path style="fill:#F55571;" d="M415.48,344.154c-0.454,0.867-0.908,1.734-1.372,2.601L41.548,312.14
					c-0.052-0.155-0.103-0.31-0.145-0.464L415.48,344.154z"/>
				<path style="fill:#303030;" d="M414.107,346.754c-0.805,1.507-1.631,2.993-2.467,4.479l-284.156-28.03l-54.429-5.315h-0.01
					l-30.599-2.983c-0.083-0.237-0.155-0.475-0.237-0.712c-0.062-0.196-0.124-0.392-0.196-0.588c-0.155-0.485-0.31-0.98-0.465-1.465
					L414.107,346.754z"/>
			</g>
			<g>
				<path style="fill:#F55571;" d="M409.339,355.165c-0.64,1.063-1.29,2.126-1.94,3.168L73.056,317.889h-0.01l-30.837-3.695
					c-0.062-0.196-0.124-0.392-0.196-0.588l85.472,9.598L409.339,355.165z"/>
				<path style="fill:#303030;" d="M407.399,358.334c-0.877,1.404-1.765,2.797-2.673,4.169l-361.558-45.45
					c-0.031-0.072-0.052-0.145-0.083-0.227c-0.217-0.64-0.423-1.269-0.64-1.92c-0.083-0.237-0.155-0.475-0.237-0.712l30.837,3.695
					h0.01L407.399,358.334z"/>
			</g>
		</g>
		<g>
			<g>
				<path style="fill:#F55571;" d="M377.295,395.827c-2.405,2.363-4.861,4.665-7.379,6.904h-0.021l-324.157-78.64
					c-0.237-0.598-0.464-1.197-0.691-1.806l332.238,73.542H377.295z"/>
				<path style="fill:#303030;" d="M369.916,402.731c-2.26,2.012-4.572,3.973-6.914,5.882l-0.021-0.01L47.214,327.817
					c-0.01-0.031-0.021-0.062-0.041-0.103c-0.31-0.764-0.619-1.527-0.919-2.291c-0.175-0.444-0.351-0.887-0.516-1.331l324.157,78.64
					H369.916z"/>
			</g>
			<g>
				<path style="fill:#F55571;" d="M341.205,424.053c-3.519,2.178-7.121,4.231-10.785,6.182h-0.01L49.567,333.307h-0.01
					c-0.372-0.826-0.733-1.662-1.084-2.498L341.205,424.053z"/>
				<path style="fill:#303030;" d="M330.421,430.234c-3.282,1.754-6.615,3.416-10.01,4.985c0,0.01,0,0.01-0.01,0L51.621,337.796
					c-0.619-1.3-1.218-2.611-1.806-3.932c-0.093-0.186-0.176-0.372-0.258-0.557h0.01l280.843,96.927H330.421z"/>
			</g>
		</g>
	</g>
</g>
<g id="Train_00000048459783857141849290000018322452503112882050_">
	<g id="Train">
		<g>
			<path style="fill:#303030;" d="M458.56,328.147c0,14.27-2.401,21.958-16.752,21.958h-70.835c-10.936,0-21.863-0.631-32.726-1.89
				L50.417,314.851c-1.761-0.204-3.185-1.53-3.514-3.272l-0.49-2.595L458.56,328.147z"/>
			<path style="fill:#303030;" d="M474.082,313.33L474.082,313.33c0,8.462-7.068,15.21-15.522,14.817L44.209,308.883
				c-0.913-0.043-1.632-0.795-1.632-1.709l0,0L474.082,313.33z"/>
			<g>
				<path style="fill:none;stroke:#00826F;stroke-width:1.5;stroke-linecap:round;stroke-linejoin:round;stroke-miterlimit:10;" d="
					M231.374,335.809c-2.812-3.517-4.572-12.18-4.572-12.18l-28.292-1.979c0,0,0.61,4.86,3.301,10.732"/>
				<path style="fill:none;stroke:#00826F;stroke-width:1.5;stroke-linecap:round;stroke-linejoin:round;stroke-miterlimit:10;" d="
					M189.747,331.223c-2.526-3.138-4.063-10.647-4.063-10.647l-24.146-1.689c0,0,0.534,4.255,2.89,9.396"/>
				<path style="fill:none;stroke:#00826F;stroke-width:1.5;stroke-linecap:round;stroke-linejoin:round;stroke-miterlimit:10;" d="
					M150.326,326.788c-2.241-2.759-3.555-9.114-3.555-9.114l-20.001-1.399c0,0,0.458,3.65,2.479,8.06"/>
				<path style="fill:none;stroke:#00826F;stroke-width:1.5;stroke-linecap:round;stroke-linejoin:round;stroke-miterlimit:10;" d="
					M114.915,322.699c-1.956-2.38-3.047-7.581-3.047-7.581l-15.855-1.109c0,0,0.382,3.045,2.068,6.723"/>
				<path style="fill:none;stroke:#00826F;stroke-width:1.5;stroke-linecap:round;stroke-linejoin:round;stroke-miterlimit:10;" d="
					M85.317,319.154c-1.67-2-2.538-6.048-2.538-6.048l-11.71-0.819c0,0,0.306,2.44,1.657,5.387"/>
				<path style="fill:none;stroke:#00826F;stroke-width:1.5;stroke-linecap:round;stroke-linejoin:round;stroke-miterlimit:10;" d="
					M63.336,316.349c-1.385-1.621-2.029-4.515-2.029-4.515l-7.564-0.529c0,0,0.23,1.834,1.246,4.051"/>
			</g>
			<path style="fill:none;stroke:#00826F;stroke-width:1.5;stroke-linecap:round;stroke-linejoin:round;stroke-miterlimit:10;" d="
				M458.56,328.147c-32.582,0-70.225,0-90.912,0c-20.687,0-31.994,0-53.218-1.546c-6.022-0.439-32.566-2.064-67.502-4.167"/>
		</g>
		<g>
			<g>
				
					<path style="fill:#00826F;stroke:#303030;stroke-width:2;stroke-linecap:round;stroke-linejoin:round;stroke-miterlimit:10;" d="
					M51.568,306.647h-0.109l-8.611-0.131c-2.035-0.033-3.72-1.597-3.873-3.633c-0.514-6.532-0.317-12.955,0.667-19.235
					c0.471-2.943,2.385-5.361,4.978-6.543l0.186-0.077l0.711-0.263l8.611-3.195c-1.335,0.602-2.495,1.488-3.414,2.582
					c-1.127,1.324-1.904,2.965-2.188,4.781c-1.116,7.079-1.335,14.3-0.766,21.675C47.924,304.7,49.532,306.363,51.568,306.647z"/>
				<path style="fill:#303030;" d="M48.061,284.396c0.134-1.157,0.283-2.311,0.465-3.461c0.106-0.679,0.302-1.323,0.539-1.946
					l-8.946,2.932c-0.211,0.552-0.382,1.125-0.478,1.728c-0.16,1.022-0.292,2.048-0.411,3.078L48.061,284.396z"/>
				<path style="fill:#FFFFFF;" d="M42.847,306.516l8.611,0.131h0.109c-1.489-0.208-2.744-1.159-3.377-2.471l-8.831,0.132
					C39.994,305.607,41.322,306.491,42.847,306.516z"/>
				<path style="fill:#FFFFFF;" d="M38.924,289.976c2.757-0.599,5.998-1.302,8.789-1.91c0.025-0.342,0.052-0.683,0.081-1.024
					c-2.821,0.742-6.004,1.585-8.822,2.328C38.956,289.573,38.939,289.774,38.924,289.976z"/>
				<path style="fill:#303030;" d="M64.052,272.433L64.052,272.433c-2.254-0.002-4.515,0.103-6.781,0.31
					c-4.453,0.408-8.056,3.773-8.75,8.191c-1.112,7.075-1.33,14.305-0.76,21.671c0.177,2.283,2.077,4.049,4.366,4.085l9.7,0.154
					h0.004l2.221,0.035V272.433z"/>
			</g>
			<g>
				
					<path style="fill:#00826F;stroke:#303030;stroke-width:2;stroke-linecap:round;stroke-linejoin:round;stroke-miterlimit:10;" d="
					M66.108,306.91v0.011l-10.711-0.175l-1.444-0.022c-2.331-0.033-4.267-1.838-4.453-4.169c-0.58-7.528-0.361-14.924,0.777-22.145
					c0.558-3.556,2.954-6.445,6.16-7.703l0.514-0.197l12.221-4.541c-1.98,0.777-3.676,2.09-4.924,3.775
					c-1.083,1.444-1.827,3.162-2.123,5.033c-1.302,8.283-1.554,16.74-0.886,25.362C61.448,304.733,63.537,306.746,66.108,306.91z"/>
				<path style="fill:#303030;" d="M61.584,280.828c0.157-1.354,0.33-2.705,0.542-4.05c0.125-0.791,0.346-1.547,0.623-2.274
					l-11.921,3.907c-0.243,0.639-0.443,1.302-0.552,1.999c-0.184,1.17-0.336,2.347-0.472,3.526L61.584,280.828z"/>
				<path style="fill:#FFFFFF;" d="M66.108,306.91c-1.921-0.123-3.572-1.278-4.371-2.936l-11.804,0.176
					c0.726,1.51,2.259,2.549,4.02,2.573l1.444,0.022l3.383,0.055l7.328,0.117V306.91z"/>
				<path style="fill:#FFFFFF;" d="M49.45,287.686c3.761-0.821,7.921-1.743,11.731-2.578c0.039-0.535,0.078-1.07,0.126-1.604
					c-3.79,0.991-8.017,2.103-11.771,3.089C49.505,286.957,49.477,287.321,49.45,287.686z"/>
				<path style="fill:none;stroke:#303030;stroke-width:2;stroke-linecap:round;stroke-linejoin:round;stroke-miterlimit:10;" d="
					M67.936,306.943l-1.587-0.022h-0.077c-2.648-0.087-4.825-2.133-5.033-4.781c-0.667-8.622-0.416-17.079,0.886-25.362
					c0.635-4.059,3.37-7.364,7.046-8.808l0.569-0.208l1.609-0.602c-3.698,1.51-6.456,4.858-7.09,8.983
					c-1.335,8.48-1.597,17.134-0.908,25.964C63.548,304.634,65.485,306.625,67.936,306.943z"/>
			</g>
			<g>
				<path style="fill:none;stroke:#303030;stroke-width:2;stroke-linecap:round;stroke-linejoin:round;stroke-miterlimit:10;" d="
					M66.108,306.352c0.558,0.306,1.171,0.514,1.827,0.591l-1.587-0.022h-0.077c-0.055,0-0.109,0-0.164-0.011
					c-2.571-0.164-4.661-2.177-4.869-4.77c-0.667-8.622-0.416-17.079,0.886-25.362c0.295-1.871,1.039-3.589,2.123-5.033
					c1.247-1.685,2.943-2.998,4.924-3.775l0.569-0.208l1.609-0.602c-2.254,0.919-4.158,2.516-5.438,4.563
					c-0.832,1.313-1.4,2.801-1.652,4.42c-1.335,8.48-1.597,17.134-0.908,25.964C63.494,303.956,64.577,305.52,66.108,306.352z"/>
				
					<path style="fill:#00826F;stroke:#303030;stroke-width:2;stroke-linecap:round;stroke-linejoin:round;stroke-miterlimit:10;" d="
					M82.827,305.761c1.083,0.908,2.462,1.455,3.961,1.477l-3.961-0.055l-2.527-0.044l-12.364-0.197
					c-2.451-0.317-4.387-2.309-4.584-4.836c-0.689-8.83-0.427-17.484,0.908-25.964c0.635-4.125,3.392-7.473,7.09-8.983l0.81-0.295
					l17.823-6.63c-3.162,1.313-5.711,3.764-7.156,6.86c-0.547,1.149-0.93,2.396-1.138,3.709c-0.733,4.65-1.193,9.333-1.39,14.071
					c-0.164,3.742-0.153,7.528,0,11.335c0.066,1.751,0.175,3.501,0.306,5.252C80.737,303.19,81.58,304.721,82.827,305.761z"/>
				<path style="fill:#303030;" d="M81.032,275.696c0.19-1.635,0.401-3.267,0.657-4.892c0.151-0.955,0.398-1.875,0.73-2.748
					L64.9,273.798c-0.284,0.749-0.515,1.526-0.641,2.345c-0.216,1.37-0.393,2.746-0.553,4.125L81.032,275.696z"/>
				<path style="fill:#FFFFFF;" d="M67.936,306.943l12.364,0.197l2.527,0.044l3.961,0.055c-1.499-0.022-2.878-0.569-3.961-1.477
					c-0.675-0.563-1.226-1.274-1.615-2.078l-17.373,0.26C64.592,305.552,66.121,306.708,67.936,306.943z"/>
				<path style="fill:#FFFFFF;" d="M63.29,284.658c5.651-1.239,11.52-2.529,17.245-3.792c0.059-0.806,0.128-1.611,0.203-2.415
					c-5.716,1.483-11.654,3.029-17.315,4.507C63.373,283.523,63.332,284.091,63.29,284.658z"/>
				<path style="fill:#303030;" d="M103.659,258.774L103.659,258.774c-3.189-0.003-6.387,0.145-9.594,0.439
					c-6.3,0.577-11.397,5.339-12.379,11.589c-1.573,10.01-1.882,20.238-1.075,30.66c0.25,3.229,2.938,5.728,6.177,5.78l13.723,0.218
					l0.005,0l3.143,0.05V258.774z"/>
			</g>
			<g>
				
					<path style="fill:#00826F;stroke:#303030;stroke-width:2;stroke-linecap:round;stroke-linejoin:round;stroke-miterlimit:10;" d="
					M116.045,307.708l-9.464-0.153l-3.206-0.055h-0.011l-14.005-0.219c-3.304-0.055-6.051-2.604-6.302-5.908
					c-0.832-10.646-0.514-21.095,1.094-31.325c0.777-4.945,4.092-8.994,8.534-10.821l0.088-0.044l0.799-0.295l26.391-9.803
					c-5.361,2.254-9.344,7.156-10.285,13.151c-1.959,12.495-2.341,25.253-1.335,38.262
					C108.648,304.525,112.007,307.643,116.045,307.708z"/>
				<path style="fill:#303030;" d="M108.861,268.352c0.236-2.045,0.497-4.085,0.816-6.116c0.186-1.185,0.495-2.324,0.905-3.412
					l-25.654,8.409c-0.343,0.9-0.623,1.833-0.777,2.815c-0.261,1.661-0.476,3.329-0.67,5.001L108.861,268.352z"/>
				<path style="fill:#FFFFFF;" d="M89.359,307.282l14.005,0.219h0.011l3.206,0.055l9.464,0.153
					c-3.046-0.05-5.705-1.838-6.958-4.443l-25.417,0.38C84.696,305.779,86.867,307.241,89.359,307.282z"/>
				<path style="fill:#FFFFFF;" d="M82.982,280.33c8.274-1.828,16.927-3.744,25.278-5.604c0.085-1.153,0.172-2.305,0.283-3.454
					c-8.401,2.159-17.04,4.387-25.362,6.543C83.102,278.651,83.044,279.491,82.982,280.33z"/>
				
					<path style="fill:#303030;stroke:#303030;stroke-width:2;stroke-linecap:round;stroke-linejoin:round;stroke-miterlimit:10;" d="
					M137.1,247.23L137.1,247.23c-3.98-0.004-7.971,0.181-11.972,0.548c-7.862,0.72-14.222,6.662-15.448,14.461
					c-1.963,12.491-2.348,25.255-1.341,38.26c0.312,4.03,3.667,7.148,7.708,7.213l17.125,0.272l0.007,0l3.922,0.062V247.23z"/>
			</g>
			<g>
				
					<path style="fill:#00826F;stroke:#303030;stroke-width:2;stroke-linecap:round;stroke-linejoin:round;stroke-miterlimit:10;" d="
					M182.765,308.77l-41.818-0.667l-21.007-0.328l-0.525-0.011c-4.136-0.066-7.561-3.25-7.878-7.375
					c-1.029-13.294-0.635-26.347,1.368-39.115c0.985-6.237,5.164-11.302,10.777-13.578l0.678-0.252l64.116-23.841
					c-7.801,3.282-13.589,10.405-14.957,19.126c-2.856,18.141-3.414,36.686-1.948,55.571
					C172.021,304.153,176.89,308.682,182.765,308.77z"/>
				<path style="fill:#303030;" d="M172.331,251.604c0.344-2.968,0.725-5.929,1.189-8.876c0.27-1.724,0.72-3.383,1.317-4.965
					l-60.995,19.993c-0.425,1.12-0.745,2.295-0.938,3.518c-0.324,2.069-0.591,4.148-0.832,6.231L172.331,251.604z"/>
				<path style="fill:#FFFFFF;" d="M140.947,308.102l41.818,0.667c-4.436-0.066-8.295-2.666-10.114-6.454l-60.354,0.903
					c1.281,2.668,3.995,4.496,7.118,4.545l0.402,0.008l2.283,0.036L140.947,308.102z"/>
				<path style="fill:#FFFFFF;" d="M111.467,273.893l60.002-13.218c0.127-1.696,0.26-3.391,0.425-5.081l-60.128,14.72
					C111.65,271.505,111.557,272.699,111.467,273.893z"/>
				
					<path style="fill:#303030;stroke:#303030;stroke-width:2;stroke-linecap:round;stroke-linejoin:round;stroke-miterlimit:10;" d="
					M213.337,220.933L213.337,220.933c-5.78-0.005-11.576,0.263-17.387,0.796c-11.418,1.046-20.655,9.675-22.434,21.002
					c-2.851,18.141-3.411,36.678-1.948,55.564c0.453,5.852,5.325,10.382,11.194,10.475l24.87,0.396l0.01,0l5.696,0.09V220.933z"/>
			</g>
			<g>
				
					<path style="fill:#00826F;stroke:#303030;stroke-width:2;stroke-linecap:round;stroke-linejoin:round;stroke-miterlimit:10;" d="
					M302.595,310.674l-83.504-1.324l-5.832-0.087h-0.011l-25.45-0.405c-0.077,0-0.142,0-0.219-0.011
					c-5.908-0.197-10.777-4.803-11.237-10.712c-1.488-19.333-0.919-38.295,2.002-56.862c1.477-9.41,7.998-17.014,16.653-20.099
					l118.112-43.93c-12.965,4.814-22.703,16.281-24.935,30.472c-4.442,28.283-5.318,57.179-3.031,86.634
					C285.844,303.474,293.437,310.531,302.595,310.674z"/>
				<g>
					<path style="fill:none;stroke:#303030;stroke-width:2;stroke-linecap:round;stroke-linejoin:round;stroke-miterlimit:10;" d="
						M285.334,194.654c-2.674,4.187-4.53,8.964-5.34,14.119c-0.34,2.164-0.658,4.332-0.954,6.503"/>
					<path style="fill:none;stroke:#303030;stroke-width:2;stroke-linecap:round;stroke-linejoin:round;stroke-miterlimit:10;" d="
						M274.988,198.208c-2.602,4.074-4.408,8.722-5.196,13.739c-0.331,2.106-0.64,4.215-0.928,6.328"/>
					<path style="fill:none;stroke:#303030;stroke-width:2;stroke-linecap:round;stroke-linejoin:round;stroke-miterlimit:10;" d="
						M265.415,201.515c-2.53,3.962-4.286,8.481-5.052,13.359c-0.322,2.047-0.623,4.098-0.903,6.153"/>
					<path style="fill:none;stroke:#303030;stroke-width:2;stroke-linecap:round;stroke-linejoin:round;stroke-miterlimit:10;" d="
						M256.569,204.589c-2.458,3.849-4.164,8.24-4.909,12.978c-0.313,1.989-0.605,3.982-0.877,5.978"/>
					<path style="fill:none;stroke:#303030;stroke-width:2;stroke-linecap:round;stroke-linejoin:round;stroke-miterlimit:10;" d="
						M248.4,207.447c-2.386,3.736-4.042,7.998-4.765,12.598c-0.303,1.931-0.587,3.865-0.851,5.803"/>
					<path style="fill:none;stroke:#303030;stroke-width:2;stroke-linecap:round;stroke-linejoin:round;stroke-miterlimit:10;" d="
						M240.862,210.103c-2.314,3.623-3.92,7.757-4.621,12.218c-0.294,1.872-0.569,3.748-0.826,5.628"/>
					<path style="fill:none;stroke:#303030;stroke-width:2;stroke-linecap:round;stroke-linejoin:round;stroke-miterlimit:10;" d="
						M233.906,212.573c-2.242,3.511-3.798,7.516-4.477,11.838c-0.285,1.814-0.552,3.632-0.8,5.452"/>
				</g>
				<g>
					<path style="fill:#303030;" d="M217.447,237.978c0.222-3.389,0.81-7.828,1.729-12.03c0.284-1.298-0.938-2.411-2.2-1.997
						l-37.279,12.219c-0.616,1.625-1.073,3.331-1.351,5.102c-0.474,3.01-0.863,6.034-1.214,9.065l38.514-10.163
						C216.658,239.907,217.378,239.024,217.447,237.978z"/>
				</g>
				<path style="fill:#FFFFFF;" d="M302.588,310.673c-6.912-0.11-12.926-4.162-15.762-10.065l-109.377,1.636
					c1.835,3.813,5.688,6.455,10.131,6.603c0.028,0.004,0.054,0.002,0.08,0.004l30.781,0.49l0.65,0.01L302.588,310.673
					L302.588,310.673z"/>
				<path style="fill:#FFFFFF;" d="M176.222,259.629c0,0,23.958-5.069,35.559-7.833c12.406-2.94,53.41-11.421,73.171-16.119
					c0.199-2.648,0.427-5.291,0.684-7.928c-3.716,0.962-13.999,3.624-13.999,3.624c-30.775,7.338-94.966,23.053-94.966,23.053
					C176.505,256.262,176.345,257.784,176.222,259.629z"/>
				
					<path style="fill:#303030;stroke:#303030;stroke-width:2;stroke-linecap:round;stroke-linejoin:round;stroke-miterlimit:10;" d="
					M350.263,173.728l-0.001-0.001c-9.011-0.007-18.047,0.412-27.108,1.242c-17.802,1.631-32.203,15.085-34.978,32.745
					c-4.444,28.284-5.318,57.186-3.037,86.633c0.707,9.125,8.303,16.186,17.454,16.332l38.776,0.617l0.015,0l8.88,0.14V173.728z"/>
			</g>
			<path style="fill:#00826F;stroke:#303030;stroke-width:2;stroke-linecap:round;stroke-linejoin:round;stroke-miterlimit:10;" d="
				M422.526,312.57l48.27,0.757c11.867,0.186,20.826-10.533,18.748-22.219c-3.887-21.848-13.624-43.281-30.264-62.676
				c-33.275-38.785-46.419-57.119-98.485-57.124l-0.001-0.001c-9.18-0.007-18.386,0.419-27.617,1.265
				c-18.137,1.661-32.808,15.368-35.635,33.36c-4.528,28.815-5.417,58.26-3.094,88.26c0.72,9.296,8.458,16.49,17.781,16.638
				l39.504,0.628l0,0l0.015,0l70.779,1.125L422.526,312.57z"/>
			<path style="fill:#00826F;stroke:#303030;stroke-width:2;stroke-linecap:round;stroke-linejoin:round;stroke-miterlimit:10;" d="
				M422.526,312.57l48.27,0.757c11.867,0.186,20.826-10.533,18.748-22.219c-3.887-21.848-13.624-43.281-30.264-62.676
				c-33.275-38.785-46.419-57.119-98.485-57.124l-0.001-0.001c-9.18-0.007-18.386,0.419-27.617,1.265
				c-18.137,1.661-32.808,15.368-35.635,33.36c-4.528,28.815-5.417,58.26-3.094,88.26c0.72,9.296,8.458,16.49,17.781,16.638
				l39.504,0.628l0,0l0.015,0l70.779,1.125L422.526,312.57z"/>
			<g>
				<path style="fill:#FFFFFF;" d="M396.659,253.166c-4.948,1.299-3.924,4.154,0.336,8.638c4.17,4.389,10.329,8.921,15.002,9.978
					c6.342,1.434,7.748-0.32,4.762-5.876c-3.318-6.175-6.331-10.832-9.125-12.476C405.659,252.269,400.051,252.276,396.659,253.166z
					"/>
				<path style="fill:#FFFFFF;" d="M463.291,253.786c5.013,1.593,6.575,4.154,8.597,8.606c2.12,4.669,3.263,9.867,0.806,9.945
					c-2.147,0.068-5.152-1.283-9.376-6.738c-5.016-6.476-6.721-9.748-6.525-11.395C456.931,253.042,459.325,252.526,463.291,253.786
					z"/>
			</g>
			<path style="fill:none;stroke:#303030;stroke-width:2;stroke-linecap:round;stroke-linejoin:round;stroke-miterlimit:10;" d="
				M448.184,277.638c4.708,9.242,9.083,23.164,5.901,35.692"/>
			<path style="fill:none;stroke:#303030;stroke-width:2;stroke-linecap:round;stroke-linejoin:round;stroke-miterlimit:10;" d="
				M489.543,291.109c-2.184-9.933-8.6-13.471-19.079-13.471c-10.479,0-50.186,0-58.435,0s-13.261,6.022-12.395,12.407
				c0.973,7.173,0.898,13.616-16.048,13.616s-84.064,1.705-84.064,1.705"/>
			<path style="fill:#303030;stroke:#303030;stroke-width:2;stroke-linecap:round;stroke-linejoin:round;stroke-miterlimit:10;" d="
				M365.105,203.65c4.665,7.66,8.418,13.8,11.384,18.641c5.897,9.623,16.367,15.486,27.653,15.486h35.446
				c6.705,0,10.822-7.342,7.316-13.057c-3.167-5.163-7.389-12.066-12.873-21.069c-2.398-3.938-4.741-7.435-7.041-10.536
				c-16.481-14.7-33.807-21.801-66.197-21.804l-0.001-0.001c-9.18-0.007-18.386,0.419-27.617,1.265
				c-3.49,0.32-6.849,1.089-10.022,2.245v0.15C337.418,174.968,349.855,178.609,365.105,203.65z"/>
			<path style="fill:none;stroke:#303030;stroke-width:2;stroke-linecap:round;stroke-linejoin:round;stroke-miterlimit:10;" d="
				M362.863,279.837c3.445-14.092,6.702-29.385,26.43-33.239c19.728-3.854,55.891-3.302,66.713-1.115
				c10.495,2.121,18.353,6.041,28.056,25.063"/>
			<path style="fill:#FFFFFF;" d="M489.543,291.109c-0.152-0.856-0.33-1.711-0.5-2.566c-0.136,0.325-0.242,0.674-0.282,1.039
				c-0.293,4.819-3.077,10.053-8.185,10.75c-1.374,0.41-9.857,0.098-11.077,0.166c-17.949-0.142-37.251,0.006-55.239-0.125
				c-12.653-0.168-23.428-6.897-33.39-14.343c-8.468-6.2-16.804-12.562-25.127-19.04c-8.108-6.339-29.564-23.127-37.33-29.288
				c0,0-6.206-4.906-6.206-4.906c-2.049-1.624-4.862-3.992-7.254-4.988c-3.098-1.45-6.539-2.107-9.948-1.968
				c-0.255,2.576-0.489,5.156-0.689,7.742c3.524-0.364,7.176,0.667,9.946,2.888c0,0,3.05,2.454,3.05,2.454
				c3.817,3.088,14.6,11.736,18.509,14.885c14.626,11.617,35.085,28.213,49.924,39.18c11.707,9.001,24.964,16.389,40.331,16.052
				c1.331-0.024,4.54,0.031,5.94-0.003c15.301-0.042,32.281,0.041,47.482-0.082c4.394-0.122,10.072,0.391,14.654-0.945
				C488.434,303.816,490.701,297.614,489.543,291.109z"/>
		</g>
	</g>
</g>
<g id="Motion_Lines">
	<g id="Motion_Lines_00000144334158920622121890000001242770514921474187_">
		
			<line style="fill:none;stroke:#FFFFFF;stroke-width:1.5;stroke-linecap:round;stroke-linejoin:round;stroke-miterlimit:10;" x1="170.703" y1="221.585" x2="273.406" y2="179.546"/>
		
			<line style="fill:none;stroke:#FFFFFF;stroke-width:1.5;stroke-linecap:round;stroke-linejoin:round;stroke-miterlimit:10;" x1="120.049" y1="242.319" x2="153.785" y2="228.51"/>
		
			<line style="fill:none;stroke:#FFFFFF;stroke-width:1.5;stroke-linecap:round;stroke-linejoin:round;stroke-miterlimit:10;" x1="213.337" y1="195.586" x2="135.909" y2="229.957"/>
		
			<line style="fill:none;stroke:#FFFFFF;stroke-width:1.5;stroke-linecap:round;stroke-linejoin:round;stroke-miterlimit:10;" x1="229.738" y1="188.305" x2="224.804" y2="190.496"/>
	</g>
</g>
</svg>
